<svg width="864" height="259" viewBox="0 0 864 259" fill="none" xmlns="http://www.w3.org/2000/svg">
<rect width="864" height="259" fill="#1E1E1E"/>
<rect width="864" height="259" rx="50" fill="black"/>
<rect x="388" y="44" width="397" height="169" rx="50" fill="#FF9900"/>
<path d="M123.56 111.68C116.84 111.68 111.613 114.987 107.88 121.6C104.787 127.253 103.24 134.293 103.24 142.72C103.24 150.933 104.84 157.92 108.04 163.68C111.667 170.187 116.84 173.44 123.56 173.44C137.32 173.44 144.2 163.307 144.2 143.04C144.2 122.133 137.32 111.68 123.56 111.68ZM103.24 59.52V106.56C109.747 99.7333 117.107 96.32 125.32 96.32C137.587 96.32 146.813 100.853 153 109.92C158.547 117.813 161.32 128.853 161.32 143.04C161.32 156.8 158.333 167.787 152.36 176C145.747 184.64 136.733 188.96 125.32 188.96C115.613 188.96 108.253 185.813 103.24 179.52V186.88H87.08V59.52H103.24ZM301.071 186.88H284.431V130.56C284.431 119.253 279.418 113.6 269.391 113.6C264.485 113.6 260.431 115.627 257.231 119.68C253.391 124.373 251.471 130.987 251.471 139.52V186.88H234.671V130.56C234.671 119.253 229.658 113.6 219.631 113.6C214.618 113.6 210.618 115.573 207.631 119.52C203.898 124.213 202.031 130.88 202.031 139.52V186.88H185.071V122.4C185.071 117.493 185.018 113.227 184.911 109.6C184.805 105.973 184.645 102.933 184.431 100.48H201.071V108.32C205.871 101.813 213.391 98.56 223.631 98.56C228.005 98.56 232.378 99.84 236.751 102.4C241.231 105.173 244.378 108.64 246.191 112.8C252.165 103.307 261.071 98.56 272.911 98.56C281.978 98.56 289.018 101.28 294.031 106.72C298.725 111.733 301.071 118.613 301.071 127.36V186.88ZM345.744 187.52H328.624V97.92H345.744V187.52ZM345.744 82.56H328.624V62.56H345.744V82.56Z" fill="white"/>
<path d="M524.48 187.52H507.2V134.24H458.08V187.52H440.64V68.16H458.08V117.92H507.2V68.16H524.48V187.52ZM642.17 68.16V145.44C642.17 161.44 637.103 173.227 626.97 180.8C619.397 186.56 610.01 189.44 598.81 189.44C587.717 189.44 578.33 186.56 570.65 180.8C560.623 173.333 555.61 161.547 555.61 145.44V68.16H573.05V144.64C573.05 153.28 575.237 160.107 579.61 165.12C584.09 170.453 590.49 173.12 598.81 173.12C607.13 173.12 613.637 170.453 618.33 165.12C622.597 160.213 624.73 153.387 624.73 144.64V68.16H642.17ZM688.976 170.4H696.976C715.323 170.4 724.496 164.32 724.496 152.16C724.496 144.373 721.35 139.093 715.056 136.32C710.896 134.507 704.283 133.6 695.216 133.6H688.976V170.4ZM689.296 117.12H698.096C713.456 117.12 721.136 111.36 721.136 99.84C721.136 89.8133 714.363 84.8 700.816 84.8H689.296V117.12ZM671.856 68.48H700.816C725.67 68.48 738.096 78.5067 738.096 98.56C738.096 111.893 731.59 120.587 718.576 124.64C725.616 126.667 731.163 130.08 735.216 134.88C739.483 139.787 741.616 145.6 741.616 152.32C741.616 175.36 726.63 186.88 696.656 186.88H671.856V68.48Z" fill="black"/>
</svg>
